HIERARCHY
ROOT Pelvis
{
	OFFSET 0.000000 0.000000 0.000000
	CHANNELS 6 Xposition Yposition Zposition Zrotation Yrotation Xrotation 
	JOINT Left_hip
	{
		OFFSET 0.070241 -0.085575 -0.010474
		CHANNELS 3 Zrotation Yrotation Xrotation
		JOINT Left_knee
		{
			OFFSET 0.032125 -0.356873 -0.000555
			CHANNELS 3 Zrotation Yrotation Xrotation
			JOINT Left_ankle
			{
				OFFSET -0.010961 -0.370212 -0.042278
				CHANNELS 3 Zrotation Yrotation Xrotation
				JOINT Left_foot
				{
					OFFSET 0.023322 -0.052281 0.110104
					CHANNELS 3 Zrotation Yrotation Xrotation
					End Site
					{
						OFFSET 0.000000 0.000000 0.000000
					}
				}
			}
		}
	}
	JOINT Right_hip
	{
		OFFSET -0.068518 -0.084320 -0.007402
		CHANNELS 3 Zrotation Yrotation Xrotation
		JOINT Right_knee
		{
			OFFSET -0.037345 -0.364815 -0.003619
			CHANNELS 3 Zrotation Yrotation Xrotation
			JOINT Right_ankle
			{
				OFFSET 0.013394 -0.370006 -0.039954
				CHANNELS 3 Zrotation Yrotation Xrotation
				JOINT Right_foot
				{
					OFFSET -0.019600 -0.045455 0.113223
					CHANNELS 3 Zrotation Yrotation Xrotation
					End Site
					{
						OFFSET 0.000000 0.000000 0.000000
					}
				}
			}
		}
	}
	JOINT Spine1
	{
		OFFSET -0.002404 0.098129 -0.018169
		CHANNELS 3 Zrotation Yrotation Xrotation
		JOINT Spine2
		{
			OFFSET 0.003989 0.127209 -0.001742
			CHANNELS 3 Zrotation Yrotation Xrotation
			JOINT Spine3
			{
				OFFSET 0.001758 0.046641 0.023475
				CHANNELS 3 Zrotation Yrotation Xrotation
				JOINT Neck
				{
					OFFSET -0.003759 0.194901 -0.039982
					CHANNELS 3 Zrotation Yrotation Xrotation
					JOINT Head
					{
						OFFSET 0.003999 0.063756 0.047665
						CHANNELS 3 Zrotation Yrotation Xrotation
						End Site
						{
							OFFSET 0.000000 0.000000 0.000000
						}
					}
				}
				JOINT Left_collar
				{
					OFFSET 0.071816 0.109048 -0.028973
					CHANNELS 3 Zrotation Yrotation Xrotation
					JOINT Left_shoulder
					{
						OFFSET 0.084027 0.032269 -0.006525
						CHANNELS 3 Zrotation Yrotation Xrotation
						JOINT Left_elbow
						{
							OFFSET 0.243854 -0.013992 -0.025905
							CHANNELS 3 Zrotation Yrotation Xrotation
							JOINT Left_wrist
							{
								OFFSET 0.232156 0.008196 -0.000339
								CHANNELS 3 Zrotation Yrotation Xrotation
								JOINT Left_palm
								{
									OFFSET 0.075377 -0.009461 -0.012494
									CHANNELS 3 Zrotation Yrotation Xrotation
									End Site
									{
										OFFSET 0.000000 0.000000 0.000000
									}
								}
							}
						}
					}
				}
				JOINT Right_collar
				{
					OFFSET -0.073768 0.107001 -0.033755
					CHANNELS 3 Zrotation Yrotation Xrotation
					JOINT Right_shoulder
					{
						OFFSET -0.086837 0.032868 -0.009431
						CHANNELS 3 Zrotation Yrotation Xrotation
						JOINT Right_elbow
						{
							OFFSET -0.236446 -0.012544 -0.018747
							CHANNELS 3 Zrotation Yrotation Xrotation
							JOINT Right_wrist
							{
								OFFSET -0.236110 0.006124 -0.004327
								CHANNELS 3 Zrotation Yrotation Xrotation
								JOINT Right_palm
								{
									OFFSET -0.074800 -0.006875 -0.009610
									CHANNELS 3 Zrotation Yrotation Xrotation
									End Site
									{
										OFFSET 0.000000 0.000000 0.000000
									}
								}
							}
						}
					}
				}
			}
		}
	}
}
MOTION
Frames: 8
Frame Time: 0.100000
0.462116 0.121269 -0.536437 178.281487 29.947207 -7.226961 15.906406 12.437518 -3.487485 2.056603 0.484536 6.752988 -8.831706 13.971276 10.702967 6.685236 3.700420 -18.223119 -8.681060 -7.461586 -11.930844 1.155941 8.018501 15.004875 10.870224 -10.450840 -7.579726 -18.632385 6.485556 3.951496 6.686941 -0.836480 5.834894 -2.094339 -4.011125 1.386781 -0.960767 3.438169 0.151807 -10.226703 -5.125074 4.339407 0.118307 4.313808 -3.954274 -3.589253 -10.036853 -8.274169 -36.494297 -28.651346 9.194100 -137.470662 -82.064328 176.933861 28.143071 -11.579224 19.316172 -20.857037 -19.448679 -14.745482 -6.279035 2.869458 -5.768232 6.884670 13.677933 -29.073325 -41.422427 30.031334 -37.097086 -22.133033 7.122236 13.805932 22.982745 19.572093 -14.462084 
0.478714 0.114414 -0.517495 177.547865 30.092496 -7.595556 13.857931 9.655194 -3.051261 0.312428 -5.398762 8.469384 -8.217256 13.051506 7.352500 5.978634 2.637003 -17.532682 -6.417808 -6.344347 -9.254850 1.256547 8.428495 11.216295 10.543101 -12.842276 -7.534888 -15.306310 8.236542 2.862582 4.211171 0.438974 5.448508 0.235841 -4.287592 0.732777 0.359427 1.493188 0.907686 -10.025920 3.318764 4.160026 1.037496 0.162141 -2.443895 2.074662 -6.533761 -9.225355 -18.483783 -35.299926 -6.925188 39.391965 -68.470993 -11.581609 26.630939 -9.176664 23.478101 -19.731281 -18.716251 -17.355479 -0.964272 -0.093432 -2.524236 25.202303 3.596783 -13.836018 -35.685312 39.728869 -28.148055 -18.078836 3.896481 -2.428589 22.632967 18.697977 -10.401562 
0.480256 0.110863 -0.503971 177.820184 27.510425 -8.476540 10.685531 4.920870 -0.635693 -3.101121 -12.668680 13.589206 -6.285085 10.296622 2.740757 5.361852 1.938101 -17.363220 -5.359952 -5.182166 -6.244921 1.037905 9.159611 8.135195 9.426034 -13.576664 -6.503476 -12.586791 10.029207 1.677786 1.849735 2.442709 4.070167 0.966365 -3.481235 1.994821 0.124006 1.014837 -0.177851 -7.635916 6.689549 1.704635 1.886446 -2.151887 2.557118 -2.111269 -2.601107 -8.460879 -14.470584 -35.454556 -13.478425 45.851183 -48.602950 -31.365330 23.611370 -4.070066 21.356858 -20.309691 -18.033314 -16.981066 9.018283 -0.899306 1.232169 42.024225 -4.029288 -1.964999 -27.957364 44.245871 -19.432117 -14.679303 0.525384 -9.961622 22.518211 18.690498 -5.985185 
0.468377 0.108373 -0.501774 177.035828 25.482951 -8.954262 9.250940 5.823836 1.282600 -0.653179 -6.766835 11.810515 -3.656920 11.474286 3.545238 3.331486 2.334695 -18.313330 -4.785138 -4.535501 -5.006654 0.297746 8.114720 6.330605 7.790050 -11.721045 -4.380378 -8.256417 11.493942 4.685745 1.749219 3.258117 0.740292 1.477289 -1.149407 4.524575 -1.232443 1.792160 -2.432418 -2.991476 4.676857 -0.220554 -1.481811 -3.417706 8.494351 -12.014483 6.835335 -7.369671 -31.943443 -28.142082 0.651118 72.652752 -59.782827 -57.193798 34.537346 -4.501038 16.090932 -24.161092 -20.141886 -17.093532 19.611666 -6.369044 3.304559 53.598963 -6.944149 6.729429 -24.329034 43.378635 -14.606093 -19.127421 -0.840243 -10.426384 23.801437 20.664230 -5.592151 
0.446157 0.109525 -0.513727 176.819752 25.973200 -9.599593 8.602583 4.792501 3.520099 -1.165386 -5.745972 8.720879 -0.044367 8.919946 3.160209 -1.859824 4.483252 -18.690350 -5.971988 -3.841049 -5.694757 -0.346133 6.692120 8.319869 8.430569 -10.347625 -4.369511 -8.837493 9.595660 6.760633 1.730790 2.598636 -0.519941 1.484041 -0.092401 3.324201 -2.623840 2.082669 -1.668671 0.361578 1.394353 0.473676 -2.631662 -3.230501 10.667600 -16.244744 16.265304 -5.915430 -48.880185 -8.896436 12.846288 82.687112 -74.989340 -59.774782 16.413734 -0.956545 9.935710 -23.180709 -17.993959 -16.245283 22.929521 -11.967635 2.105277 61.815116 -8.519272 11.612890 -23.897258 46.390091 -9.071117 -11.852462 -1.341812 -4.662098 23.652080 18.550581 -7.062006 
0.422109 0.118135 -0.542113 175.895647 27.552048 -11.968779 6.832137 4.749369 6.116210 -1.113679 -5.262516 5.880809 2.272841 9.503297 0.531693 -2.826463 5.904749 -16.260192 -7.459537 -3.360736 -7.383501 -0.822875 5.883522 13.986825 8.572314 -8.935527 -4.328258 -8.290553 6.184588 6.099985 2.301645 1.021212 0.663703 0.627203 -0.006301 3.141482 -3.251735 1.723572 -0.160009 2.073983 -3.784334 3.485682 -2.599716 -1.293915 8.352525 -19.827195 17.372716 -4.834814 -60.374172 3.133720 16.670169 51.544876 -74.328523 -25.829684 10.999633 2.212747 9.720621 -22.580953 -17.148754 -16.149601 21.343564 -10.971324 2.127578 61.772549 -7.201725 16.357771 -10.195328 53.530091 7.867983 -8.232333 -0.947020 -1.653216 22.933234 16.509661 -8.203679 
0.401723 0.131333 -0.583586 174.867825 28.247176 -13.692550 4.902211 5.906306 9.152489 -1.016479 -2.639492 -0.365137 3.797384 9.596846 -1.859537 -2.365476 7.711200 -14.054990 -9.196855 -2.609078 -11.883111 -1.194678 5.266029 21.046895 10.979756 -6.426252 -2.415397 -10.736776 3.705532 4.448547 2.403234 -0.417480 2.769116 0.945961 0.242814 4.054440 -2.873721 1.562515 0.261452 2.850751 -6.105567 6.594306 -3.592636 -3.166180 6.127969 -19.978800 16.219051 -5.811698 -64.769095 7.030797 17.442171 29.886313 -77.502696 5.170336 -7.607545 0.039529 21.514532 -18.435136 -15.411870 -16.466218 20.419443 -7.839506 1.469432 56.970919 -4.302531 19.093616 -1.620908 60.222431 26.002017 4.807529 1.850004 13.123198 18.842240 14.143524 -10.384985 
0.389948 0.141808 -0.634187 174.552785 29.124200 -12.578128 2.804134 5.482364 6.061992 -1.949682 -2.075509 -2.403730 4.805606 9.215725 -1.941977 -2.441373 8.043503 -11.796214 -10.705071 -3.694158 -13.451479 -2.264716 4.468270 16.458923 12.054328 -7.202515 1.688707 -11.091526 3.710656 3.229476 0.738517 -0.194216 4.755992 1.917301 -1.449199 5.392195 -1.845384 1.162274 -0.668891 1.238821 -6.280232 5.720776 -0.720767 -3.589707 5.278644 -18.073254 8.991590 -4.138577 -56.913968 2.321407 21.518730 -14.232010 -80.335637 47.903842 -7.499838 -1.695925 19.374779 -18.504714 -15.249314 -17.407691 20.514675 -3.411559 1.476310 53.224345 -2.308858 19.395817 0.420098 64.604189 23.399933 5.763947 1.319970 8.186728 19.251048 14.057188 -11.828514 
